<svg width="201" height="202" viewBox="0 0 201 202" fill="none" xmlns="http://www.w3.org/2000/svg">
<path d="M92.2012 170.19C93.5551 170.353 94.7114 170.838 95.67 171.647C96.6279 172.463 97.3279 173.534 97.7702 174.86C98.2116 176.194 98.3343 177.721 98.1382 179.443C97.9437 181.151 97.4823 182.598 96.754 183.784C96.0256 184.97 95.1007 185.842 93.9791 186.401C92.8575 186.961 91.6126 187.158 90.2446 186.994C89.1869 186.867 88.3713 186.591 87.798 186.164C87.2168 185.744 86.7894 185.292 86.5156 184.809C86.234 184.331 86.0176 183.941 85.8664 183.636L85.6549 183.611L84.7435 191.613L82.2472 191.314L84.716 169.636L87.1277 169.925L86.8432 172.423L87.1394 172.459C87.3565 172.184 87.66 171.841 88.0499 171.43C88.439 171.027 88.9674 170.686 89.6352 170.408C90.3022 170.138 91.1575 170.065 92.2012 170.19ZM91.6071 172.394C90.6058 172.274 89.7299 172.433 88.9793 172.872C88.228 173.319 87.6195 173.986 87.1537 174.874C86.6872 175.77 86.384 176.831 86.2442 178.059C86.106 179.273 86.1613 180.356 86.4102 181.309C86.6584 182.269 87.099 183.044 87.7322 183.635C88.3646 184.233 89.1885 184.593 90.204 184.715C91.2618 184.842 92.1742 184.676 92.9412 184.217C93.7004 183.764 94.3089 183.097 94.7668 182.215C95.2168 181.339 95.5069 180.329 95.6371 179.186C95.7689 178.029 95.7123 176.956 95.4674 175.968C95.2147 174.987 94.771 174.175 94.1364 173.534C93.4939 172.899 92.6508 172.519 91.6071 172.394Z" fill="transparent"/>
<path d="M76.7882 166.559C77.7597 166.922 78.576 167.435 79.2371 168.098C79.8959 168.769 80.3334 169.542 80.5497 170.419C80.7637 171.302 80.6924 172.246 80.336 173.25C80.0223 174.133 79.5951 174.785 79.0542 175.204C78.511 175.631 77.8941 175.893 77.2035 175.992C76.5129 176.09 75.791 176.086 75.0376 175.979C74.2753 175.877 73.5215 175.74 72.7762 175.568C71.8019 175.341 71.0146 175.149 70.4143 174.993C69.8049 174.842 69.3399 174.793 69.0191 174.848C68.6916 174.9 68.4601 175.117 68.3247 175.498L68.2962 175.579C67.9445 176.569 67.9408 177.439 68.2849 178.189C68.6224 178.937 69.3334 179.513 70.4181 179.918C71.5426 180.337 72.5122 180.419 73.3268 180.162C74.1414 179.905 74.7783 179.544 75.2374 179.078L77.188 180.716C76.4561 181.504 75.6648 182.035 74.8141 182.308C73.9543 182.586 73.0917 182.681 72.2262 182.593C71.3516 182.51 70.5284 182.324 69.7566 182.036C69.2642 181.852 68.7199 181.581 68.1239 181.222C67.5189 180.867 66.9811 180.397 66.5105 179.813C66.0333 179.225 65.7246 178.492 65.5843 177.614C65.4441 176.735 65.5913 175.684 66.0262 174.459L69.6331 164.299L71.9887 165.178L71.2473 167.266L71.3671 167.311C71.6456 167.036 72.0389 166.777 72.547 166.534C73.055 166.292 73.666 166.152 74.3799 166.115C75.0938 166.079 75.8965 166.227 76.7882 166.559ZM75.6732 168.554C74.7417 168.206 73.8911 168.097 73.1217 168.227C72.3455 168.354 71.6911 168.648 71.1583 169.109C70.6189 169.567 70.2351 170.117 70.007 170.76L69.2371 172.928C69.3797 172.845 69.6385 172.816 70.0135 172.843C70.3795 172.873 70.7951 172.934 71.2604 173.024C71.7167 173.118 72.1606 173.216 72.5922 173.316C73.0147 173.421 73.3583 173.503 73.6231 173.564C74.2638 173.712 74.8824 173.795 75.4788 173.813C76.0663 173.836 76.586 173.73 77.038 173.497C77.481 173.268 77.8094 172.853 78.0232 172.25C78.3155 171.427 78.2337 170.691 77.7779 170.044C77.313 169.4 76.6115 168.904 75.6732 168.554Z" fill="transparent"/>
<path d="M63.9866 161.03L55.1632 174.811L53.1506 173.451L54.4833 171.369L54.342 171.274C53.6583 171.789 52.8568 172.04 51.9376 172.027C51.0183 172.015 50.1526 171.734 49.3405 171.185C49.1875 171.082 48.9982 170.95 48.7725 170.788C48.5468 170.627 48.3789 170.501 48.2689 170.41L49.6475 168.256C49.7067 168.322 49.8513 168.458 50.0814 168.665C50.3017 168.874 50.5502 169.072 50.8268 169.259C51.4859 169.704 52.1644 169.961 52.8623 170.03C53.5504 170.101 54.2016 169.992 54.8157 169.705C55.4202 169.419 55.9215 168.965 56.3198 168.343L61.9033 159.622L63.9866 161.03Z" fill="transparent"/>
<path d="M48.9257 150.22L37.2055 161.64L35.5098 159.783L47.2299 148.364L48.9257 150.22ZM34.3899 162.599C34.7205 162.961 34.886 163.389 34.8864 163.884C34.882 164.374 34.712 164.783 34.3762 165.11C34.0405 165.437 33.6357 165.589 33.1619 165.565C32.6833 165.535 32.2788 165.34 31.9483 164.978C31.6177 164.616 31.4547 164.19 31.459 163.7C31.4586 163.205 31.6262 162.794 31.962 162.467C32.2977 162.14 32.7049 161.991 33.1835 162.02C33.6573 162.044 34.0594 162.237 34.3899 162.599Z" fill="transparent"/>
<path d="M43.4258 144.876L29.3403 153.205L28.1475 151.089L30.3483 149.788L30.2437 149.602C29.3243 149.75 28.4702 149.616 27.6813 149.199C26.8863 148.787 26.2272 148.117 25.704 147.188C25.1739 146.248 24.9436 145.341 25.0132 144.466C25.0732 143.59 25.3797 142.752 25.9329 141.955L25.8492 141.807C24.9159 141.872 24.0295 141.666 23.19 141.189C22.3444 140.715 21.6338 139.968 21.0584 138.948C20.3399 137.673 20.1465 136.397 20.4783 135.121C20.8039 133.847 21.7951 132.721 23.4519 131.741L32.8788 126.167L34.1135 128.357L24.6865 133.931C23.6472 134.546 23.0666 135.273 22.9447 136.112C22.8228 136.951 22.9815 137.761 23.421 138.54C23.986 139.543 24.7233 140.142 25.6328 140.338C26.5362 140.538 27.4434 140.369 28.3543 139.83L37.5245 134.408L38.7801 136.635L29.133 142.34C28.3322 142.813 27.8354 143.458 27.6428 144.273C27.4441 145.091 27.5784 145.915 28.0457 146.744C28.3666 147.313 28.8163 147.757 29.3949 148.075C29.97 148.386 30.6089 148.537 31.3117 148.525C32.0049 148.511 32.6969 148.3 33.3877 147.892L42.1911 142.686L43.4258 144.876Z" fill="transparent"/>
<path d="M32.2683 120.675C32.6783 122.094 32.7023 123.444 32.3402 124.723C31.9762 125.996 31.2772 127.12 30.2432 128.095C29.2073 129.063 27.8821 129.798 26.2677 130.298C24.6397 130.804 23.1328 130.948 21.7471 130.731C20.3594 130.507 19.176 129.967 18.197 129.111C17.2159 128.248 16.5204 127.107 16.1104 125.688C15.7004 124.269 15.6774 122.923 16.0414 121.65C16.4035 120.37 17.1059 119.245 18.1486 118.275C19.1894 117.298 20.5237 116.557 22.1517 116.052C23.7662 115.551 25.2638 115.413 26.6447 115.639C28.0237 115.858 29.2036 116.399 30.1847 117.262C31.1637 118.118 31.8583 119.256 32.2683 120.675ZM30.1112 121.344C29.7997 120.266 29.2688 119.464 28.5182 118.939C27.7677 118.413 26.8965 118.122 25.9045 118.066C24.9125 118.009 23.8942 118.143 22.8495 118.467C21.8049 118.791 20.8798 119.26 20.0742 119.874C19.2686 120.489 18.6882 121.23 18.3331 122.099C17.9779 122.967 17.956 123.94 18.2675 125.019C18.579 126.097 19.1133 126.897 19.8706 127.421C20.6279 127.944 21.506 128.233 22.5047 128.288C23.5035 128.342 24.5252 128.207 25.5699 127.883C26.6145 127.559 27.5362 127.091 28.335 126.479C29.1338 125.867 29.7074 125.127 30.0558 124.261C30.4042 123.394 30.4226 122.422 30.1112 121.344Z" fill="transparent"/>
<path d="M30.3695 88.6347C30.1416 89.9791 29.6015 91.1039 28.7494 92.009C27.8903 92.9128 26.7897 93.5413 25.4477 93.8944C24.0987 94.2463 22.572 94.2659 20.8674 93.9533C19.1769 93.6433 17.7591 93.0837 16.6142 92.2744C15.4693 91.4652 14.6459 90.4803 14.1439 89.3197C13.642 88.159 13.5062 86.8995 13.7365 85.541C13.9146 84.4907 14.2299 83.6929 14.6825 83.1478C15.1292 82.5944 15.6 82.1969 16.0947 81.9555C16.5836 81.7059 16.9832 81.5156 17.2935 81.3848L17.3291 81.1747L9.40726 79.7219L9.82751 77.2431L31.2878 81.1787L30.8818 83.5735L28.4088 83.12L28.359 83.4141C28.6215 83.65 28.9478 83.977 29.3379 84.3951C29.7211 84.8119 30.0344 85.3639 30.2781 86.0512C30.5147 86.7372 30.5452 87.5983 30.3695 88.6347ZM28.205 87.8912C28.3736 86.8969 28.2576 86.0092 27.857 85.2281C27.4494 84.4458 26.8148 83.7915 25.9532 83.2653C25.0846 82.7378 24.0426 82.3626 22.8271 82.1397C21.6255 81.9193 20.5445 81.9016 19.584 82.0864C18.6164 82.27 17.823 82.6588 17.2037 83.2528C16.5774 83.8455 16.1788 84.646 16.0078 85.6543C15.8298 86.7047 15.9503 87.6293 16.3695 88.4282C16.7829 89.2188 17.4175 89.8731 18.2733 90.391C19.1233 90.9007 20.1141 91.2593 21.2458 91.4668C22.3915 91.6769 23.462 91.6927 24.4575 91.5143C25.4471 91.3276 26.2766 90.9382 26.946 90.3462C27.6096 89.7459 28.0293 88.9275 28.205 87.8912Z" fill="transparent"/>
<path d="M34.743 73.3909C34.3436 74.3478 33.8028 75.1367 33.1204 75.7576C32.4316 76.3756 31.6509 76.7622 30.7783 76.9174C29.8992 77.0696 28.9731 76.9289 28.0001 76.4951C27.1438 76.1134 26.5209 75.6335 26.1312 75.0556C25.735 74.4747 25.5035 73.8312 25.4366 73.1251C25.3698 72.419 25.4053 71.6885 25.5434 70.9338C25.6777 70.1697 25.8458 69.4167 26.0477 68.6749C26.3139 67.7053 26.5368 66.9223 26.7165 66.3261C26.8923 65.7204 26.9604 65.2532 26.9206 64.9245C26.8836 64.5893 26.6802 64.3392 26.3104 64.1744L26.2326 64.1397C25.2725 63.7117 24.4157 63.6446 23.6622 63.9383C22.9114 64.2255 22.3131 64.9033 21.8672 65.9717C21.4049 67.0793 21.2824 68.0548 21.4998 68.898C21.7172 69.7412 22.045 70.4121 22.4832 70.9106L20.7856 72.7658C20.0416 71.9677 19.5534 71.1281 19.321 70.2472C19.0848 69.3567 19.029 68.4767 19.1534 67.6071C19.2741 66.728 19.4931 65.9084 19.8105 65.1481C20.0129 64.6631 20.3038 64.132 20.6832 63.5548C21.0588 62.9682 21.5449 62.458 22.1414 62.0243C22.7406 61.584 23.4759 61.3249 24.3471 61.2468C25.2183 61.1688 26.2474 61.3944 27.4345 61.9236L37.2816 66.3134L36.3132 68.6336L34.2893 67.7314L34.24 67.8493C34.4987 68.1512 34.7363 68.5681 34.9529 69.1C35.1694 69.6319 35.2803 70.2604 35.2853 70.9856C35.2904 71.7108 35.1096 72.5126 34.743 73.3909ZM32.8279 72.1173C33.2109 71.1997 33.3553 70.3468 33.2612 69.5585C33.1698 68.7637 32.9089 68.0799 32.4786 67.5072C32.051 66.9279 31.5259 66.4994 30.9031 66.2218L28.8014 65.2849C28.8771 65.4352 28.8939 65.6992 28.8516 66.0769C28.8057 66.4451 28.7281 66.8614 28.6189 67.3258C28.5059 67.7807 28.3906 68.2229 28.2729 68.6524C28.1514 69.0725 28.0549 69.4143 27.9834 69.6778C27.8096 70.3155 27.7008 70.9355 27.6571 71.538C27.6096 72.1309 27.6908 72.6646 27.9006 73.1391C28.1066 73.6041 28.5015 73.9667 29.0853 74.2269C29.8832 74.5826 30.6109 74.5534 31.2685 74.1391C31.9224 73.7154 32.4422 73.0415 32.8279 72.1173Z" fill="transparent"/>
<path d="M40.908 60.7685L27.9325 50.7983L29.3534 48.8283L31.3133 50.3342L31.413 50.1959C30.9455 49.4607 30.7403 48.6226 30.7975 47.6818C30.8547 46.7409 31.1699 45.873 31.7433 45.0781C31.8513 44.9284 31.9892 44.7433 32.1568 44.523C32.3245 44.3027 32.4555 44.1392 32.5499 44.0327L34.5773 45.5905C34.5106 45.6467 34.371 45.7856 34.1585 46.0073C33.9446 46.219 33.74 46.4602 33.5447 46.7309C33.0794 47.376 32.7962 48.0537 32.6953 48.764C32.5929 49.4642 32.6666 50.1386 32.9165 50.7872C33.165 51.4258 33.582 51.9701 34.1677 52.4201L42.3788 58.7294L40.908 60.7685Z" fill="transparent"/>
<path d="M53.7548 47.5613L43.4229 34.8719L45.3246 33.2274L55.6565 45.9168L53.7548 47.5613ZM42.6679 31.9208C42.2972 32.2414 41.8722 32.3884 41.3928 32.3618C40.9188 32.3306 40.5338 32.1332 40.2379 31.7697C39.9419 31.4062 39.8202 30.9812 39.8726 30.4947C39.9305 30.0036 40.1447 29.5977 40.5154 29.2772C40.8861 28.9566 41.3084 28.812 41.7824 28.8432C42.2618 28.8698 42.6495 29.0648 42.9455 29.4283C43.2414 29.7918 43.3605 30.2191 43.3026 30.7103C43.2502 31.1968 43.0386 31.6003 42.6679 31.9208Z" fill="transparent"/>
<path d="M59.2853 42.3813L52.0716 27.6935L54.2323 26.5838L55.3595 28.8788L55.549 28.7815C55.4672 27.8416 55.6578 26.9813 56.1209 26.2007C56.5809 25.4136 57.2847 24.7768 58.2324 24.2901C59.1927 23.7969 60.0999 23.6064 60.954 23.7186C61.8114 23.8211 62.6126 24.172 63.3579 24.7712L63.5095 24.6933C63.5097 23.7433 63.7729 22.8537 64.2993 22.0246C64.8225 21.1891 65.6053 20.5037 66.6477 19.9683C67.9492 19.2999 69.2157 19.1644 70.4472 19.5617C71.6756 19.9527 72.7141 21.012 73.5625 22.7396L78.3904 32.5697L76.1539 33.7183L71.326 23.8881C70.7938 22.8044 70.1196 22.1807 69.3035 22.0171C68.4873 21.8535 67.6813 21.9761 66.8852 22.3849C65.8617 22.9105 65.2223 23.6301 64.9668 24.5436C64.7082 25.4507 64.8122 26.3792 65.2787 27.3291L69.975 36.8915L67.7006 38.0595L62.76 27.9999C62.3499 27.1648 61.7511 26.6301 60.9636 26.3959C60.173 26.1553 59.3544 26.2524 58.5078 26.6872C57.9265 26.9857 57.4599 27.4209 57.1079 27.9929C56.7622 28.5616 56.5708 29.2027 56.5336 29.9163C56.4996 30.6203 56.6595 31.3325 57.0133 32.0528L61.5218 41.2327L59.2853 42.3813Z" fill="transparent"/>
<path d="M83.8126 32.3105C82.3771 32.6594 81.0385 32.623 79.7966 32.2013C78.5617 31.7779 77.4982 31.0241 76.6063 29.94C75.7212 28.8542 75.0883 27.4878 74.7077 25.8409C74.3239 24.1801 74.2891 22.6574 74.6032 21.2728C74.9243 19.8866 75.544 18.72 76.4623 17.7733C77.3874 16.8249 78.5678 16.1762 80.0033 15.8273C81.4387 15.4784 82.7739 15.5157 84.0089 15.9391C85.2507 16.3608 86.315 17.118 87.2016 18.2107C88.0952 19.3018 88.7339 20.6777 89.1177 22.3385C89.4984 23.9854 89.5273 25.4985 89.2047 26.8779C88.8889 28.2556 88.2685 29.4186 87.3433 30.367C86.425 31.3138 85.2481 31.9616 83.8126 32.3105ZM83.3041 30.11C84.3945 29.8449 85.2269 29.3466 85.8013 28.615C86.3757 27.8834 86.7264 27.0198 86.8535 26.0242C86.9805 25.0286 86.9209 23.9979 86.6747 22.9323C86.4284 21.8666 86.0298 20.9147 85.4789 20.0765C84.9281 19.2384 84.2351 18.6211 83.4 18.2248C82.565 17.8285 81.6022 17.7628 80.5118 18.0278C79.4214 18.2929 78.5898 18.7947 78.017 19.5332C77.4442 20.2717 77.0951 21.1422 76.9696 22.1448C76.8441 23.1473 76.9045 24.1814 77.1508 25.2471C77.3971 26.3127 77.7949 27.2612 78.3441 28.0924C78.8934 28.9236 79.5847 29.534 80.4182 29.9234C81.2517 30.3128 82.2136 30.375 83.3041 30.11Z" fill="transparent"/>
<path d="M115.946 32.2306C114.621 31.9086 113.529 31.2887 112.67 30.3709C111.812 29.4462 111.239 28.2984 110.951 26.9275C110.664 25.5496 110.716 24.0165 111.106 22.328C111.493 20.6534 112.116 19.2699 112.973 18.1774C113.831 17.0848 114.848 16.3271 116.024 15.9041C117.201 15.4811 118.459 15.4322 119.798 15.7576C120.833 16.0092 121.611 16.3809 122.131 16.8728C122.66 17.3595 123.033 17.8594 123.249 18.3725C123.475 18.8803 123.645 19.2945 123.76 19.6149L123.968 19.6652L125.781 11.8181L128.224 12.4118L123.311 33.6695L120.951 33.0959L121.517 30.6463L121.227 30.5759C120.98 30.8229 120.64 31.1276 120.207 31.49C119.775 31.8454 119.211 32.1215 118.517 32.3182C117.825 32.508 116.968 32.4788 115.946 32.2306ZM116.786 30.1106C117.766 30.3487 118.653 30.294 119.448 29.9463C120.244 29.5916 120.924 29.0004 121.487 28.1725C122.052 27.3377 122.473 26.3183 122.752 25.1142C123.027 23.924 123.095 22.8406 122.956 21.8641C122.819 20.8807 122.47 20.0577 121.909 19.3951C121.349 18.7256 120.573 18.2701 119.579 18.0286C118.544 17.777 117.619 17.8338 116.806 18.1989C116.001 18.5587 115.321 19.15 114.767 19.9726C114.221 20.79 113.818 21.7592 113.559 22.8802C113.297 24.0151 113.231 25.0881 113.362 26.0992C113.501 27.1051 113.849 27.9644 114.406 28.6771C114.971 29.3845 115.765 29.8624 116.786 30.1106Z" fill="transparent"/>
<path d="M130.816 37.6307C129.894 37.1561 129.143 36.5499 128.563 35.8123C127.987 35.0682 127.642 34.2476 127.528 33.3503C127.417 32.4467 127.596 31.5165 128.065 30.5598C128.477 29.7179 128.976 29.12 129.56 28.7661C130.148 28.4058 130.79 28.2171 131.486 28.2002C132.182 28.1833 132.898 28.2721 133.633 28.4668C134.377 28.6583 135.109 28.8834 135.828 29.1419C136.769 29.4823 137.527 29.7651 138.105 29.9906C138.692 30.2129 139.148 30.3157 139.472 30.299C139.803 30.2856 140.057 30.0972 140.235 29.7336L140.273 29.6571C140.735 28.7131 140.839 27.848 140.584 27.0617C140.335 26.2786 139.696 25.6221 138.666 25.0922C137.599 24.5428 136.647 24.348 135.809 24.5079C134.972 24.6678 134.299 24.9522 133.79 25.3612L132.043 23.5035C132.86 22.8056 133.706 22.3705 134.581 22.1981C135.465 22.0226 136.332 22.0294 137.18 22.2186C138.038 22.4046 138.833 22.6861 139.565 23.0633C140.033 23.3038 140.541 23.6376 141.091 24.0645C141.651 24.4882 142.13 25.0186 142.53 25.6556C142.936 26.2959 143.158 27.0611 143.196 27.9514C143.234 28.8416 142.968 29.8704 142.396 31.0375L137.652 40.7193L135.417 39.5685L136.392 37.5786L136.278 37.52C135.971 37.7609 135.551 37.9721 135.019 38.1536C134.487 38.3351 133.865 38.4022 133.153 38.355C132.441 38.3078 131.662 38.0664 130.816 37.6307ZM132.15 35.7781C133.034 36.2332 133.865 36.4414 134.643 36.4027C135.428 36.3673 136.111 36.1518 136.692 35.7562C137.279 35.3638 137.723 34.8615 138.023 34.2492L139.035 32.1828C138.885 32.2488 138.625 32.2468 138.256 32.1766C137.896 32.1034 137.491 31.9945 137.04 31.8501C136.598 31.7026 136.169 31.5536 135.752 31.403C135.345 31.2494 135.014 31.1267 134.759 31.0351C134.14 30.8125 133.536 30.6573 132.947 30.5694C132.366 30.4784 131.839 30.5223 131.364 30.701C130.898 30.8767 130.525 31.2515 130.244 31.8255C129.859 32.61 129.856 33.3511 130.234 34.0487C130.621 34.7432 131.26 35.3197 132.15 35.7781Z" fill="transparent"/>
<path d="M142.873 44.6061L153.218 31.9277L155.057 33.5145L153.494 35.4295L153.623 35.5409C154.361 35.1084 155.185 34.952 156.095 35.0717C157.006 35.1914 157.832 35.5714 158.574 36.2117C158.714 36.3323 158.886 36.4859 159.092 36.6723C159.297 36.8588 159.449 37.0039 159.547 37.1077L157.931 39.0887C157.88 39.0165 157.752 38.8642 157.548 38.6316C157.353 38.3983 157.13 38.1725 156.877 37.9544C156.275 37.4348 155.632 37.1001 154.947 36.9504C154.273 36.7999 153.615 36.8319 152.972 37.0465C152.34 37.2603 151.79 37.6533 151.323 38.2256L144.776 46.2486L142.873 44.6061Z" fill="transparent"/>
<path d="M156.557 57.0864L169.515 47.0938L170.982 49.1354L158.024 59.128L156.557 57.0864ZM172.421 46.4664C172.135 46.0685 172.02 45.6234 172.077 45.1312C172.139 44.6448 172.355 44.2584 172.726 43.9722C173.097 43.6859 173.516 43.5822 173.984 43.6609C174.455 43.7455 174.834 43.9867 175.12 44.3846C175.406 44.7826 175.519 45.2248 175.457 45.7112C175.4 46.2034 175.186 46.5926 174.815 46.8789C174.444 47.1651 174.022 47.266 173.551 47.1815C173.083 47.1027 172.707 46.8644 172.421 46.4664Z" fill="transparent"/>
<path d="M161.38 63.0049L176.345 56.3845L177.287 58.6235L174.948 59.658L175.031 59.8544C175.962 59.8152 176.796 60.0482 177.532 60.5533C178.275 61.0555 178.853 61.7976 179.266 62.7797C179.684 63.7748 179.809 64.7021 179.639 65.5616C179.478 66.4247 179.076 67.2196 178.434 67.9462L178.501 68.1034C179.436 68.1477 180.293 68.4555 181.073 69.0269C181.859 69.5954 182.479 70.4198 182.933 71.5C183.501 72.8486 183.546 74.1371 183.069 75.3654C182.598 76.5908 181.483 77.5929 179.722 78.3716L169.707 82.8024L168.732 80.4849L178.748 76.054C179.852 75.5656 180.513 74.912 180.731 74.0934C180.949 73.2748 180.885 72.453 180.538 71.6281C180.092 70.5676 179.428 69.8867 178.546 69.5857C177.671 69.2817 176.75 69.3438 175.782 69.772L166.039 74.0821L165.048 71.7253L175.297 67.191C176.148 66.8146 176.716 66.2332 177.002 65.4468C177.294 64.6576 177.255 63.8244 176.887 62.9471C176.633 62.3448 176.237 61.8522 175.699 61.4692C175.163 61.0928 174.545 60.8692 173.845 60.7984C173.154 60.7313 172.442 60.8601 171.708 61.1848L162.355 65.3225L161.38 63.0049Z" fill="transparent"/>
<path d="M169.666 88.3043C169.419 86.8477 169.549 85.5062 170.054 84.2798C170.561 83.0603 171.384 82.0283 172.523 81.1837C173.663 80.346 175.065 79.7745 176.727 79.4692C178.404 79.1612 179.919 79.197 181.272 79.5766C182.627 79.9632 183.743 80.6391 184.619 81.6045C185.497 82.5769 186.059 83.7914 186.305 85.2479C186.552 86.7045 186.422 88.0425 185.915 89.2619C185.41 90.4884 184.583 91.5211 183.436 92.36C182.29 93.2059 180.879 93.7828 179.202 94.0907C177.54 94.3961 176.035 94.3549 174.687 93.967C173.34 93.5862 172.228 92.9096 171.351 91.9372C170.474 90.9718 169.913 89.7608 169.666 88.3043ZM171.887 87.8962C172.075 89.0027 172.512 89.861 173.198 90.4714C173.885 91.0817 174.719 91.4738 175.699 91.6475C176.679 91.8213 177.707 91.8094 178.783 91.6118C179.858 91.4142 180.832 91.0585 181.703 90.5447C182.574 90.0309 183.235 89.3643 183.687 88.5448C184.139 87.7253 184.271 86.7624 184.084 85.656C183.897 84.5495 183.456 83.6918 182.762 83.0827C182.069 82.4737 181.228 82.0829 180.241 81.9104C179.254 81.738 178.223 81.7505 177.147 81.9481C176.071 82.1457 175.101 82.5008 174.237 83.0133C173.373 83.5258 172.719 84.1911 172.274 85.0093C171.829 85.8275 171.7 86.7898 171.887 87.8962Z" fill="transparent"/>
<path d="M167.905 120.352C168.284 119.042 168.948 117.988 169.896 117.189C170.851 116.392 172.014 115.898 173.385 115.705C174.763 115.515 176.28 115.677 177.935 116.19C179.577 116.699 180.92 117.423 181.964 118.364C183.008 119.304 183.712 120.381 184.078 121.595C184.444 122.809 184.436 124.077 184.053 125.401C183.757 126.424 183.354 127.18 182.843 127.669C182.337 128.166 181.825 128.505 181.306 128.687C180.793 128.877 180.375 129.019 180.052 129.112L179.993 129.317L187.686 131.701L186.988 134.116L166.147 127.658L166.822 125.325L169.224 126.069L169.306 125.782C169.073 125.517 168.786 125.153 168.447 124.691C168.114 124.231 167.866 123.645 167.702 122.932C167.546 122.222 167.613 121.362 167.905 120.352ZM169.968 121.348C169.688 122.317 169.702 123.214 170.011 124.038C170.326 124.864 170.881 125.59 171.676 126.215C172.478 126.843 173.469 127.34 174.649 127.705C175.816 128.067 176.886 128.213 177.86 128.143C178.841 128.075 179.672 127.782 180.354 127.265C181.042 126.75 181.529 126.001 181.813 125.019C182.109 123.995 182.094 123.062 181.769 122.218C181.449 121.382 180.894 120.656 180.104 120.04C179.319 119.432 178.377 118.958 177.278 118.618C176.165 118.273 175.105 118.13 174.097 118.19C173.094 118.258 172.227 118.547 171.496 119.056C170.769 119.575 170.26 120.339 169.968 121.348Z" fill="transparent"/>
<path d="M161.797 135.018C162.304 134.114 162.932 133.393 163.681 132.855C164.435 132.321 165.255 132.028 166.139 131.975C167.029 131.927 167.931 132.175 168.847 132.719C169.653 133.199 170.215 133.748 170.535 134.368C170.862 134.992 171.017 135.659 171.002 136.368C170.987 137.078 170.867 137.8 170.643 138.534C170.422 139.278 170.168 140.007 169.882 140.721C169.506 141.654 169.194 142.406 168.947 142.978C168.703 143.559 168.581 144.016 168.583 144.347C168.581 144.685 168.754 144.957 169.102 145.164L169.175 145.208C170.078 145.745 170.921 145.912 171.702 145.708C172.481 145.51 173.153 144.906 173.718 143.896C174.305 142.849 174.539 141.893 174.421 141.03C174.302 140.166 174.054 139.461 173.677 138.914L175.576 137.268C176.222 138.148 176.61 139.04 176.739 139.943C176.87 140.856 176.824 141.737 176.6 142.587C176.379 143.447 176.067 144.236 175.664 144.955C175.408 145.413 175.058 145.907 174.614 146.437C174.174 146.976 173.633 147.426 172.991 147.788C172.345 148.156 171.586 148.327 170.712 148.303C169.839 148.279 168.843 147.935 167.726 147.27L158.461 141.758L159.69 139.564L161.594 140.697L161.657 140.586C161.435 140.255 161.247 139.813 161.094 139.259C160.94 138.705 160.903 138.068 160.981 137.346C161.06 136.625 161.332 135.849 161.797 135.018ZM163.551 136.508C163.065 137.375 162.823 138.206 162.825 139.001C162.824 139.802 163.004 140.512 163.365 141.131C163.723 141.757 164.194 142.244 164.78 142.593L166.758 143.77C166.7 143.611 166.714 143.347 166.799 142.976C166.888 142.616 167.013 142.211 167.175 141.762C167.339 141.323 167.505 140.897 167.671 140.484C167.84 140.08 167.975 139.752 168.077 139.498C168.323 138.884 168.502 138.281 168.615 137.687C168.731 137.103 168.712 136.563 168.558 136.067C168.408 135.581 168.058 135.174 167.508 134.847C166.758 134.401 166.032 134.345 165.332 134.68C164.634 135.025 164.04 135.634 163.551 136.508Z" fill="transparent"/>
<path d="M154.198 146.866L165.934 158.269L164.293 160.06L162.52 158.338L162.405 158.464C162.785 159.248 162.891 160.104 162.725 161.031C162.559 161.959 162.145 162.784 161.483 163.506C161.358 163.643 161.2 163.81 161.007 164.01C160.815 164.209 160.666 164.356 160.56 164.451L158.726 162.669C158.799 162.621 158.954 162.499 159.191 162.304C159.428 162.119 159.659 161.903 159.885 161.657C160.422 161.07 160.782 160.43 160.965 159.737C161.148 159.053 161.153 158.375 160.98 157.702C160.807 157.04 160.456 156.451 159.926 155.936L152.5 148.72L154.198 146.866Z" fill="transparent"/>
<path d="M139.88 158.502L148.693 172.29L146.611 173.699L137.798 159.911L139.88 158.502ZM149.103 175.304C149.509 175.03 149.948 174.933 150.422 175.016C150.89 175.102 151.251 175.342 151.503 175.737C151.755 176.132 151.827 176.568 151.719 177.044C151.605 177.525 151.345 177.902 150.939 178.177C150.533 178.451 150.096 178.546 149.628 178.459C149.154 178.377 148.791 178.139 148.539 177.744C148.286 177.349 148.217 176.911 148.331 176.431C148.44 175.954 148.697 175.579 149.103 175.304Z" fill="transparent"/>
<path d="M133.782 163.021L139.267 178.438L136.99 179.286L136.133 176.877L135.934 176.952C135.907 177.894 135.619 178.725 135.068 179.445C134.52 180.172 133.747 180.721 132.749 181.093C131.737 181.47 130.813 181.553 129.977 181.341C129.136 181.139 128.379 180.697 127.707 180.015L127.548 180.075C127.438 181.017 127.074 181.869 126.455 182.63C125.839 183.397 124.982 183.986 123.883 184.395C122.512 184.905 121.237 184.891 120.058 184.353C118.882 183.821 117.971 182.649 117.326 180.835L113.656 170.517L116.012 169.639L119.682 179.958C120.087 181.095 120.685 181.793 121.478 182.051C122.271 182.309 123.087 182.282 123.925 181.969C125.003 181.568 125.722 180.929 126.081 180.053C126.443 179.183 126.446 178.249 126.091 177.252L122.521 167.215L124.917 166.323L128.673 176.882C128.985 177.759 129.519 178.359 130.275 178.684C131.034 179.015 131.859 179.015 132.751 178.683C133.363 178.455 133.877 178.077 134.293 177.551C134.702 177.028 134.966 176.414 135.085 175.71C135.2 175.016 135.123 174.291 134.854 173.534L131.426 163.899L133.782 163.021Z" fill="transparent"/>
<path d="M108.221 170.15C109.688 169.974 111.015 170.169 112.201 170.735C113.381 171.301 114.353 172.175 115.116 173.357C115.873 174.539 116.347 175.97 116.538 177.65C116.731 179.344 116.592 180.859 116.123 182.195C115.646 183.533 114.897 184.617 113.877 185.448C112.849 186.279 111.602 186.783 110.135 186.959C108.669 187.135 107.346 186.939 106.166 186.373C104.979 185.807 104.007 184.929 103.25 183.74C102.485 182.551 102.007 181.11 101.814 179.416C101.623 177.737 101.766 176.232 102.243 174.901C102.714 173.572 103.463 172.491 104.49 171.66C105.511 170.829 106.755 170.326 108.221 170.15ZM108.477 172.394C107.363 172.528 106.479 172.923 105.824 173.581C105.17 174.239 104.723 175.054 104.484 176.027C104.244 177 104.187 178.03 104.31 179.117C104.434 180.204 104.722 181.196 105.175 182.093C105.627 182.99 106.246 183.684 107.031 184.177C107.816 184.669 108.766 184.848 109.88 184.715C110.994 184.581 111.878 184.182 112.531 183.517C113.185 182.852 113.631 182.029 113.869 181.049C114.108 180.069 114.165 179.036 114.042 177.949C113.918 176.863 113.63 175.874 113.179 174.984C112.727 174.094 112.109 173.407 111.325 172.921C110.54 172.436 109.591 172.26 108.477 172.394Z" fill="transparent"/>
<g clip-path="url(#clip0_1521_36333)">
<path d="M104.866 118.648V65.3955H96.1337V118.648L72.7131 95.1805L66.5392 101.367L100.5 135.396L134.461 101.367L128.287 95.1805L104.866 118.648Z" fill="white"/>
</g>
<defs>
<clipPath id="clip0_1521_36333">
<rect width="105" height="104.79" fill="transparent" transform="matrix(0 -1 -1 0 152.895 152.896)"/>
</clipPath>
</defs>
</svg>
